<svg xmlns="http://www.w3.org/2000/svg" width="46" height="30" viewBox="0 0 46 30" fill="none">
  <g clip-path="url(#clip0_3413_4283)">
    <path d="M41.0785 0.759705H4.34022C4.18721 0.759705 4.03393 0.759705 3.88119 0.760597C3.75208 0.761516 3.62327 0.762949 3.49446 0.766464C3.21353 0.774062 2.93019 0.790636 2.65278 0.840495C2.37093 0.891219 2.10866 0.973956 1.8528 1.10423C1.60126 1.23215 1.37097 1.39946 1.17141 1.59911C0.971753 1.79876 0.80444 2.02867 0.676548 2.28048C0.54625 2.53634 0.463459 2.79869 0.413087 3.08076C0.36296 3.35825 0.346275 3.64153 0.338704 3.92216C0.335243 4.05097 0.333759 4.17979 0.332918 4.30857C0.332026 4.46163 0.332323 4.61459 0.332323 4.76792V25.403C0.332323 25.5563 0.332026 25.709 0.332918 25.8624C0.333759 25.9912 0.335243 26.12 0.338704 26.2488C0.346275 26.5292 0.36296 26.8125 0.413087 27.0899C0.463459 27.372 0.54625 27.6343 0.676548 27.8902C0.80444 28.142 0.971753 28.3722 1.17141 28.5715C1.37097 28.7715 1.60126 28.9388 1.8528 29.0664C2.10866 29.197 2.37093 29.2798 2.65278 29.3305C2.93019 29.38 3.21353 29.3969 3.49446 29.4045C3.62327 29.4074 3.75208 29.4091 3.88119 29.4097C4.03393 29.4109 4.18721 29.4109 4.34022 29.4109H41.0785C41.2313 29.4109 41.3846 29.4109 41.5373 29.4097C41.6661 29.4091 41.7949 29.4074 41.9243 29.4045C42.2046 29.3969 42.4879 29.38 42.766 29.3305C43.0475 29.2798 43.3098 29.197 43.5657 29.0664C43.8175 28.9388 44.0471 28.7715 44.2471 28.5715C44.4464 28.3722 44.6137 28.142 44.742 27.8902C44.8725 27.6343 44.9553 27.372 45.0054 27.0899C45.0555 26.8125 45.0718 26.5292 45.0794 26.2488C45.0829 26.12 45.0847 25.9912 45.0853 25.8624C45.0864 25.709 45.0864 25.5563 45.0864 25.403V4.76792C45.0864 4.61459 45.0864 4.46163 45.0853 4.30857C45.0847 4.17979 45.0829 4.05097 45.0794 3.92216C45.0718 3.64153 45.0555 3.35825 45.0054 3.08076C44.9553 2.79869 44.8725 2.53634 44.742 2.28048C44.6137 2.02867 44.4464 1.79876 44.2471 1.59911C44.0471 1.39946 43.8175 1.23215 43.5657 1.10423C43.3098 0.973956 43.0475 0.891219 42.766 0.840495C42.4879 0.790636 42.2046 0.774062 41.9243 0.766464C41.7949 0.762949 41.6661 0.761516 41.5373 0.760597C41.3846 0.759705 41.2313 0.759705 41.0785 0.759705Z" fill="white"/>
    <path d="M41.0786 1.71472L41.5306 1.71559C41.653 1.71645 41.7754 1.71778 41.8985 1.72113C42.1127 1.72692 42.3632 1.73852 42.5967 1.78037C42.7997 1.81693 42.9699 1.87252 43.1333 1.95569C43.2945 2.03764 43.4423 2.14504 43.5713 2.27387C43.7008 2.40358 43.8084 2.55159 43.8914 2.71465C43.9741 2.87675 44.0294 3.04617 44.0657 3.25064C44.1074 3.4816 44.119 3.73278 44.1249 3.94825C44.1282 4.06987 44.1298 4.19149 44.1304 4.316C44.1315 4.46658 44.1315 4.61707 44.1315 4.76795V25.403C44.1315 25.5539 44.1315 25.7041 44.1303 25.8579C44.1298 25.9795 44.1282 26.1011 44.1248 26.223C44.119 26.4381 44.1074 26.6892 44.0652 26.9228C44.0294 27.1245 43.9742 27.2939 43.891 27.4569C43.8082 27.6195 43.7008 27.7674 43.5719 27.8963C43.4421 28.026 43.2948 28.1331 43.1316 28.2158C42.9695 28.2986 42.7995 28.3541 42.5986 28.3903C42.3603 28.4327 42.0993 28.4444 41.9028 28.4498C41.7791 28.4525 41.656 28.4542 41.5299 28.4548C41.3797 28.456 41.2289 28.4559 41.0786 28.4559H4.34028C4.33828 28.4559 4.33633 28.4559 4.33431 28.4559C4.18576 28.4559 4.03691 28.4559 3.88566 28.4548C3.76234 28.4542 3.63928 28.4526 3.52032 28.4499C3.31926 28.4444 3.0581 28.4328 2.82181 28.3906C2.6191 28.3541 2.44916 28.2986 2.28488 28.2147C2.12322 28.1328 1.97605 28.0258 1.84624 27.8958C1.71743 27.7672 1.61038 27.6198 1.52762 27.4569C1.44477 27.2941 1.38934 27.1242 1.3529 26.9201C1.31077 26.6869 1.2992 26.4368 1.29341 26.2231C1.29011 26.1008 1.28873 25.9785 1.28795 25.8569L1.28735 25.4978L1.28738 25.403V4.76795L1.28735 4.67315L1.28792 4.31486C1.28873 4.19252 1.29011 4.07019 1.29341 3.94795C1.2992 3.73405 1.31077 3.4839 1.35325 3.24872C1.38937 3.0465 1.44477 2.87653 1.52805 2.71298C1.61016 2.55132 1.7174 2.40374 1.84689 2.27428C1.97586 2.14525 2.12351 2.03799 2.2862 1.95525C2.44873 1.87249 2.61899 1.81693 2.8217 1.78045C3.05526 1.73849 3.30593 1.72692 3.52061 1.7211C3.64299 1.71778 3.76536 1.71645 3.88682 1.71561L4.34028 1.71472H41.0786Z" fill="#3A3A3A"/>
    <path d="M12.5496 10.3964C12.9328 9.9171 13.1928 9.27354 13.1242 8.61591C12.5633 8.6438 11.8788 8.98598 11.4825 9.46566C11.1266 9.87642 10.8117 10.5469 10.8938 11.177C11.5235 11.2316 12.1526 10.8622 12.5496 10.3964Z" fill="white"/>
    <path d="M13.1176 11.3C12.2031 11.2455 11.4256 11.819 10.9889 11.819C10.552 11.819 9.88324 11.3274 9.15995 11.3407C8.21853 11.3545 7.34501 11.8868 6.86728 12.7334C5.88468 14.4269 6.60797 16.9391 7.5635 18.3184C8.02753 19.0008 8.58676 19.7522 9.32364 19.7252C10.0199 19.6979 10.2927 19.2744 11.139 19.2744C11.9847 19.2744 12.2305 19.7252 12.9675 19.7115C13.7318 19.6979 14.2096 19.0288 14.6736 18.3457C15.2059 17.5678 15.4239 16.8167 15.4376 16.7755C15.4239 16.7618 13.9638 16.2017 13.9503 14.5222C13.9365 13.116 15.0966 12.4471 15.1512 12.4056C14.4961 11.4367 13.4725 11.3274 13.1176 11.3Z" fill="white"/>
    <path d="M21.0799 9.39679C23.0675 9.39679 24.4515 10.7668 24.4515 12.7615C24.4515 14.7634 23.039 16.1405 21.0301 16.1405H18.8295V19.6402H17.2395V9.39679L21.0799 9.39679ZM18.8295 14.8059H20.6538C22.0381 14.8059 22.826 14.0607 22.826 12.7687C22.826 11.4768 22.0381 10.7385 20.6609 10.7385H18.8295V14.8059Z" fill="white"/>
    <path d="M24.8672 17.5177C24.8672 16.2114 25.8681 15.4094 27.6429 15.3099L29.6872 15.1893V14.6144C29.6872 13.7838 29.1263 13.2869 28.1895 13.2869C27.302 13.2869 26.7482 13.7127 26.6135 14.3801H25.1654C25.2506 13.0313 26.4005 12.0375 28.2462 12.0375C30.0563 12.0375 31.2133 12.9958 31.2133 14.4936V19.6401H29.7438V18.4121H29.7085C29.2756 19.2427 28.3313 19.7679 27.3518 19.7679C25.8895 19.7679 24.8672 18.8593 24.8672 17.5177ZM29.6872 16.8433V16.2542L27.8486 16.3677C26.9328 16.4316 26.4147 16.8362 26.4147 17.4751C26.4147 18.1281 26.9542 18.5541 27.7776 18.5541C28.8495 18.5541 29.6872 17.8158 29.6872 16.8433Z" fill="white"/>
    <path d="M32.6004 22.387V21.1447C32.7137 21.173 32.9692 21.173 33.0971 21.173C33.8069 21.173 34.1903 20.8749 34.4244 20.1083C34.4244 20.094 34.5594 19.654 34.5594 19.6469L31.8621 12.1719H33.5229L35.4114 18.2485H35.4396L37.328 12.1719H38.9465L36.1494 20.0301C35.5108 21.8404 34.7725 22.4224 33.225 22.4224C33.0971 22.4224 32.7137 22.4082 32.6004 22.387Z" fill="white"/>
  </g>
  <defs>
    <clipPath id="clip0_3413_4283">
      <rect width="44.7542" height="28.6512" fill="white" transform="translate(0.332275 0.759705)"/>
    </clipPath>
  </defs>
</svg>