<svg xmlns="http://www.w3.org/2000/svg" width="31" height="31" viewBox="0 0 31 31" fill="none">
<path d="M4.25476 26.7013L6.66219 19.4791C5.51819 17.1917 5.22548 14.5719 5.83644 12.0885C6.44741 9.60512 7.92216 7.42016 9.9968 5.92467C12.0714 4.42918 14.6105 3.72075 17.1597 3.92617C19.7089 4.13159 22.1018 5.23745 23.9102 7.04585C25.7186 8.85425 26.8245 11.2472 27.0299 13.7964C27.2353 16.3456 26.5269 18.8847 25.0314 20.9593C23.5359 23.0339 21.351 24.5087 18.8676 25.1197C16.3842 25.7306 13.7644 25.4379 11.477 24.2939L4.25476 26.7013Z" stroke="white" stroke-width="0.977972" stroke-linecap="round" stroke-linejoin="round"/>
<path d="M12.8812 11.2976H18.2918" stroke="white"/>
<path d="M12.8812 19.2976H18.2918" stroke="white"/>
<path d="M15.3817 15.2976H20.7923" stroke="white"/>
</svg>