<svg xmlns="http://www.w3.org/2000/svg" width="50" height="24" viewBox="0 0 50 24" fill="none">
<g clip-path="url(#clip0_3413_4275)">
<path d="M23.7168 12.4799V18.125H21.8958V4.16394H26.6304C27.7837 4.16394 28.8763 4.58884 29.7261 5.37795C30.5759 6.10635 31.0008 7.19896 31.0008 8.35227C31.0008 9.50558 30.5759 10.5375 29.7261 11.3266C28.8763 12.1157 27.8444 12.5406 26.6304 12.5406L23.7168 12.4799ZM23.7168 5.86355V10.7196H26.7518C27.4195 10.7196 28.0872 10.4768 28.5121 9.99118C29.4833 9.08067 29.4833 7.56316 28.5728 6.65266L28.5121 6.59196C28.0265 6.10635 27.4195 5.80285 26.7518 5.86355H23.7168Z" fill="white"/>
<path d="M35.1891 8.29144C36.5245 8.29144 37.5564 8.65565 38.3455 9.38405C39.1346 10.1125 39.4988 11.0837 39.4988 12.2977V18.1249H37.7992V16.7895H37.7385C37.0101 17.8821 35.9782 18.4284 34.7642 18.4284C33.7323 18.4284 32.8217 18.1249 32.0933 17.5179C31.4256 16.9109 31.0007 16.0611 31.0007 15.1506C31.0007 14.1794 31.3649 13.3903 32.0933 12.7833C32.8217 12.1763 33.8537 11.9335 35.0677 11.9335C36.1603 11.9335 37.0101 12.1156 37.6778 12.5405V12.1156C37.6778 11.5086 37.435 10.9016 36.9494 10.5374C36.4638 10.1125 35.8568 9.86965 35.1891 9.86965C34.1572 9.86965 33.368 10.2946 32.8217 11.1444L31.2435 10.1732C32.2147 8.89845 33.4895 8.29144 35.1891 8.29144ZM32.8824 15.2113C32.8824 15.6969 33.1252 16.1218 33.4895 16.3646C33.9144 16.6681 34.4 16.8502 34.8856 16.8502C35.614 16.8502 36.3424 16.5467 36.8887 16.0004C37.4957 15.4541 37.7992 14.7864 37.7992 14.058C37.2529 13.6331 36.4638 13.3903 35.4319 13.3903C34.7035 13.3903 34.0965 13.5724 33.6108 13.9366C33.1252 14.2401 32.8824 14.665 32.8824 15.2113Z" fill="white"/>
<path d="M49.3322 8.59497L43.3229 22.374H41.5019L43.7478 17.5786L39.8022 8.65567H41.7447L44.5976 15.5148H44.6583L47.4505 8.65567H49.3322V8.59497Z" fill="white"/>
<path d="M16.4936 11.2659C16.4936 10.7196 16.4329 10.1733 16.3722 9.62695H8.78467V12.7227H13.0944C12.9123 13.6939 12.366 14.6044 11.5162 15.1507V17.1538H14.1263C15.6438 15.7577 16.4936 13.6939 16.4936 11.2659Z" fill="white"/>
<path d="M8.78447 19.0961C10.9697 19.0961 12.7907 18.3677 14.1261 17.1537L11.516 15.1506C10.7876 15.6362 9.87708 15.9397 8.78447 15.9397C6.72066 15.9397 4.89965 14.5436 4.29264 12.6012H1.62183V14.665C3.01794 17.3965 5.74945 19.0961 8.78447 19.0961Z" fill="white"/>
<path d="M4.29288 12.6012C3.92868 11.63 3.92868 10.5374 4.29288 9.50553V7.44171H1.62206C0.468753 9.68763 0.468753 12.3584 1.62206 14.6651L4.29288 12.6012Z" fill="white"/>
<path d="M8.78456 6.22786C9.93787 6.22786 11.0305 6.65277 11.8803 7.44187L14.1869 5.13526C12.7301 3.79985 10.7877 3.01074 8.84526 3.07144C5.81025 3.07144 3.01803 4.77105 1.68262 7.50257L4.35344 9.56639C4.89974 7.62397 6.72075 6.22786 8.78456 6.22786Z" fill="white"/>
</g>
<defs>
<clipPath id="clip0_3413_4275">
<rect width="48.5603" height="23.1269" fill="white" transform="translate(0.771973 0.521912)"/>
</clipPath>
</defs>
</svg>