<svg xmlns="http://www.w3.org/2000/svg" width="24" height="25" viewBox="0 0 24 25" fill="none">
<path d="M2.99658 15.944L8.11773 10.8228C8.67992 10.2599 9.44264 9.94334 10.2382 9.94264H12.9988C13.5294 9.94264 14.0382 10.1534 14.4134 10.5286C14.7885 10.9037 14.9993 11.4125 14.9993 11.9431C14.9993 12.4736 14.7885 12.9825 14.4134 13.3576C14.0382 13.7328 13.5294 13.9435 12.9988 13.9435H10.4983M14.4992 13.2634L18.6701 8.37229C18.9923 8.01511 19.4392 7.795 19.9188 7.75726C20.3984 7.71953 20.8742 7.86702 21.2483 8.16941C21.6224 8.4718 21.8665 8.90608 21.9302 9.3829C21.9939 9.85972 21.8724 10.3428 21.5907 10.7328L17.3898 16.6741C17.1148 17.0638 16.7508 17.3823 16.3281 17.6032C15.9055 17.8241 15.4362 17.9411 14.9593 17.9444H9.82811C9.56414 17.9442 9.30274 17.9963 9.05897 18.0975C8.8152 18.1988 8.59389 18.3474 8.40779 18.5346L6.99748 19.9449" stroke="#111111" stroke-width="1.5" stroke-linecap="round" stroke-linejoin="round"/>
<path d="M1.99707 14.9438L7.99841 20.9452" stroke="#111111" stroke-width="1.5" stroke-linecap="round" stroke-linejoin="round"/>
</svg>