<svg width="38" height="37" viewBox="0 0 38 37" fill="none" xmlns="http://www.w3.org/2000/svg">
<g id="linkedin">
<path id="linkedin_2" d="M14.2967 27.7476H10.3745L10.3745 15.4042H14.2967V27.7476ZM12.3356 13.6738C11.0667 13.6738 10.1438 12.751 10.1438 11.482C10.1438 10.2131 11.182 9.29022 12.3356 9.29022C13.6046 9.29022 14.5274 10.2131 14.5274 11.482C14.5274 12.751 13.6046 13.6738 12.3356 13.6738ZM28.6011 27.7476H24.679V21.0568C24.679 19.0957 23.8714 18.5189 22.7179 18.5189C21.5643 18.5189 20.4107 19.4418 20.4107 21.1721V27.7476H16.4885V15.4042H20.18V17.1346C20.5261 16.3271 21.9103 15.0581 23.8714 15.0581C26.0633 15.0581 28.3704 16.3271 28.3704 20.1339V27.7476H28.6011Z" fill="white"/>
</g>
</svg>
