<svg xmlns="http://www.w3.org/2000/svg" width="26" height="26" viewBox="0 0 26 26" fill="none">
<path d="M20.0198 11.9966H5.97843C4.87059 11.9966 3.97251 12.8947 3.97251 14.0025V21.0232C3.97251 22.131 4.87059 23.0291 5.97843 23.0291H20.0198C21.1277 23.0291 22.0257 22.131 22.0257 21.0232V14.0025C22.0257 12.8947 21.1277 11.9966 20.0198 11.9966Z" stroke="#111111" stroke-width="1.5" stroke-linecap="round" stroke-linejoin="round"/>
<path d="M7.98251 11.9967V7.98488C7.98251 6.65488 8.51085 5.37935 9.45131 4.43889C10.3918 3.49844 11.6673 2.97009 12.9973 2.97009C14.3273 2.97009 15.6028 3.49844 16.5433 4.43889C17.4837 5.37935 18.0121 6.65488 18.0121 7.98488V11.9967" stroke="#111111" stroke-width="1.5" stroke-linecap="round" stroke-linejoin="round"/>
</svg>