<svg xmlns="http://www.w3.org/2000/svg" width="24" height="25" viewBox="0 0 24 25" fill="none">
<path d="M12.999 4.9375H16.0012C16.532 4.9375 17.041 5.14836 17.4164 5.5237C17.7917 5.89904 18.0026 6.40811 18.0026 6.93892V20.9489" stroke="#111111" stroke-width="1.5" stroke-linecap="round" stroke-linejoin="round"/>
<path d="M1.9917 20.9487H4.99384" stroke="#111111" stroke-width="1.5" stroke-linecap="round" stroke-linejoin="round"/>
<path d="M12.999 20.9487H22.0054" stroke="#111111" stroke-width="1.5" stroke-linecap="round" stroke-linejoin="round"/>
<path d="M9.99658 12.9434V12.9532" stroke="#111111" stroke-width="1.5" stroke-linecap="round" stroke-linejoin="round"/>
<path d="M12.9998 5.49966V21.6682C12.9998 21.8202 12.9651 21.9702 12.8985 22.1068C12.8318 22.2434 12.7349 22.363 12.6151 22.4566C12.4953 22.5501 12.3557 22.6152 12.2071 22.6468C12.0584 22.6783 11.9044 22.6756 11.757 22.6389L4.99414 20.9486V6.50037C4.99421 6.05406 5.14345 5.62058 5.41815 5.26882C5.69284 4.91707 6.07723 4.66722 6.51022 4.55899L10.5131 3.55827C10.808 3.48455 11.1159 3.47899 11.4133 3.54202C11.7108 3.60505 11.9899 3.73501 12.2296 3.92205C12.4693 4.10908 12.6633 4.34827 12.7967 4.62145C12.9302 4.89463 12.9996 5.19562 12.9998 5.49966Z" stroke="#111111" stroke-width="1.5" stroke-linecap="round" stroke-linejoin="round"/>
</svg>