<svg xmlns="http://www.w3.org/2000/svg" width="38" height="37" viewBox="0 0 38 37" fill="none">
<path d="M28.6114 16.5705C28.411 17.0299 28.2615 17.1284 27.7511 17.1127C26.4496 17.0724 25.2102 16.7773 24.0429 16.1926C23.9924 16.1675 23.9418 16.1425 23.8905 16.12C23.8798 16.1153 23.8641 16.1221 23.8302 16.1263C23.8302 16.2066 23.8302 16.2885 23.8302 16.3709C23.8289 18.4048 23.8471 20.4392 23.8212 22.4727C23.7805 25.662 21.4064 28.5299 18.2897 29.1979C14.5225 30.0051 10.889 27.8038 9.86648 24.0943C8.81172 20.2685 11.2478 16.2062 15.1246 15.3514C15.6307 15.2397 16.1573 15.207 16.6766 15.1709C17.0897 15.142 17.3628 15.4134 17.3657 15.8287C17.3729 16.9373 17.3721 18.0465 17.3666 19.1551C17.3644 19.5806 17.1097 19.8197 16.6702 19.8379C15.4167 19.8893 14.4367 20.8095 14.3157 22.0494C14.1947 23.2876 15.0732 24.4404 16.3025 24.6565C17.539 24.8739 18.7606 24.105 19.0676 22.899C19.1313 22.6494 19.1559 22.3835 19.1559 22.125C19.161 17.5836 19.1631 13.0423 19.1538 8.50097C19.153 8.11074 19.2706 7.83389 19.6273 7.67041H23.3567C23.6994 7.81945 23.8259 8.07762 23.8412 8.45299C23.9308 10.6377 25.6289 12.337 27.8067 12.4245C28.2084 12.4406 28.4819 12.582 28.6118 12.9688V16.5713L28.6114 16.5705ZM27.3316 15.8117C27.3316 15.1128 27.335 14.4431 27.3239 13.7735C27.3231 13.7302 27.2178 13.6627 27.1528 13.6504C24.9163 13.2223 23.4497 11.9268 22.7648 9.75445C22.6828 9.49458 22.6429 9.22155 22.583 8.95362H20.4306C20.4306 9.04873 20.4306 9.13196 20.4306 9.21518C20.4306 12.1115 20.4306 15.0074 20.4306 17.9038C20.4306 19.387 20.4455 20.8706 20.4255 22.3538C20.3958 24.5597 18.3589 26.2659 16.1861 25.9274C14.4053 25.6502 13.1012 24.1784 13.0295 22.3649C12.9611 20.6362 14.1751 19.0685 15.9076 18.6605C16.0541 18.6261 16.1025 18.5777 16.1004 18.4269C16.0919 17.8409 16.0974 17.2545 16.0961 16.6681C16.0961 16.6087 16.0859 16.5488 16.0783 16.4707C15.9394 16.4911 15.8214 16.5059 15.7046 16.5255C12.6592 17.0346 10.5034 20.0006 10.9497 23.0672C11.4045 26.192 14.1777 28.3652 17.3267 28.0646C20.2154 27.7885 22.5164 25.3257 22.5499 22.4226C22.578 19.9717 22.5588 17.5204 22.5571 15.0694C22.5571 14.7722 22.6319 14.5196 22.913 14.379C23.1835 14.244 23.4179 14.3408 23.6663 14.486C24.1762 14.7845 24.6909 15.0822 25.2297 15.3212C25.8832 15.6113 26.583 15.7535 27.3312 15.8117H27.3316Z" fill="white"/>
</svg>