<svg width="49" height="16" viewBox="0 0 49 16" fill="none" xmlns="http://www.w3.org/2000/svg">
<g clip-path="url(#clip0_3139_4110)">
<path d="M21.2062 15.7445H17.2581L19.7275 0.475403H23.6754L21.2062 15.7445Z" fill="white"/>
<path d="M35.5183 0.848675C34.7396 0.539726 33.5044 0.198608 31.9772 0.198608C28.0783 0.198608 25.3327 2.2777 25.3159 5.25017C25.2835 7.44325 27.2816 8.66135 28.7761 9.39259C30.3035 10.1398 30.8228 10.6275 30.8228 11.2936C30.8072 12.3165 29.5885 12.788 28.4518 12.788C26.8755 12.788 26.0309 12.5449 24.7474 11.9758L24.2275 11.7318L23.675 15.1594C24.601 15.5813 26.3071 15.9557 28.0783 15.9721C32.2209 15.9721 34.9179 13.9251 34.9498 10.7575C34.9656 9.01931 33.9105 7.68743 31.6358 6.5991C30.2549 5.90045 29.4093 5.42937 29.4093 4.71453C29.4255 4.06468 30.1245 3.39907 31.6833 3.39907C32.9668 3.36647 33.9099 3.67498 34.6243 3.98372L34.9814 4.14586L35.5183 0.848675Z" fill="white"/>
<path d="M40.7656 10.3352C41.0907 9.45802 42.3419 6.06304 42.3419 6.06304C42.3255 6.09564 42.6664 5.16966 42.8613 4.6012L43.1372 5.91688C43.1372 5.91688 43.8849 9.5718 44.0472 10.3352C43.4302 10.3352 41.5454 10.3352 40.7656 10.3352ZM45.6391 0.475403H42.5852C41.6434 0.475403 40.928 0.751319 40.5216 1.74229L34.6572 15.7443H38.7999C38.7999 15.7443 39.4819 13.8597 39.6285 13.4538C40.0829 13.4538 44.1129 13.4538 44.6975 13.4538C44.8109 13.9899 45.1686 15.7443 45.1686 15.7443H48.8242L45.6391 0.475403Z" fill="white"/>
<path d="M13.9604 0.475403L10.0939 10.8875L9.67142 8.77579C8.95658 6.33917 6.71471 3.69184 4.21289 2.37551L7.75447 15.7283H11.9295L18.1352 0.475403H13.9604Z" fill="white"/>
<path d="M6.50354 0.475403H0.151411L0.0864258 0.78392C5.04148 2.05102 8.32312 5.10532 9.6714 8.77643L8.29052 1.75891C8.06318 0.783704 7.36454 0.507572 6.50354 0.475403Z" fill="white"/>
</g>
<defs>
<clipPath id="clip0_3139_4110">
<rect width="48.7379" height="15.7734" fill="white" transform="translate(0.0864258 0.198608)"/>
</clipPath>
</defs>
</svg>
