<svg width="38" height="37" viewBox="0 0 38 37" fill="none" xmlns="http://www.w3.org/2000/svg">
<g id="youtube">
<path id="youtube_2" d="M28.054 14.0199C27.8233 13.2124 27.2465 12.6356 26.439 12.4049C25.0547 12.0588 19.1714 12.0588 19.1714 12.0588C19.1714 12.0588 13.4035 12.0588 11.9038 12.4049C11.0963 12.6356 10.5195 13.2124 10.2888 14.0199C10.0581 15.5196 10.0581 18.5189 10.0581 18.5189C10.0581 18.5189 10.0581 21.5182 10.4042 23.0179C10.6349 23.8254 11.2117 24.4022 12.0192 24.6329C13.4035 24.979 19.2868 24.979 19.2868 24.979C19.2868 24.979 25.0547 24.979 26.5543 24.6329C27.3619 24.4022 27.9387 23.8254 28.1694 23.0179C28.5155 21.5182 28.5154 18.5189 28.5154 18.5189C28.5154 18.5189 28.5155 15.5196 28.054 14.0199ZM17.441 21.2875V15.7503L22.2861 18.5189L17.441 21.2875Z" fill="white"/>
</g>
</svg>
