<svg width="24" height="25" viewBox="0 0 24 25" fill="none" xmlns="http://www.w3.org/2000/svg">
<path d="M8 22.8086C8.55228 22.8086 9 22.3609 9 21.8086C9 21.2563 8.55228 20.8086 8 20.8086C7.44772 20.8086 7 21.2563 7 21.8086C7 22.3609 7.44772 22.8086 8 22.8086Z" fill="#32893B" stroke="#32893B" stroke-width="1.5" stroke-linecap="round" stroke-linejoin="round"/>
<path d="M19 22.8086C19.5523 22.8086 20 22.3609 20 21.8086C20 21.2563 19.5523 20.8086 19 20.8086C18.4477 20.8086 18 21.2563 18 21.8086C18 22.3609 18.4477 22.8086 19 22.8086Z" fill="#32893B" stroke="#32893B" stroke-width="1.5" stroke-linecap="round" stroke-linejoin="round"/>
<path d="M2.05005 2.8586H4.05005L6.71005 15.2786C6.80763 15.7335 7.06072 16.1401 7.42576 16.4285C7.7908 16.7168 8.24495 16.8689 8.71005 16.8586H18.49C18.9452 16.8579 19.3865 16.7019 19.7411 16.4164C20.0956 16.131 20.3422 15.7331 20.4401 15.2886L22.09 7.8586H5.12005" stroke="#32893B" stroke-width="1.5" stroke-linecap="round" stroke-linejoin="round"/>
</svg>
