<svg xmlns="http://www.w3.org/2000/svg" width="18" height="19" viewBox="0 0 18 19" fill="none">
<path fill-rule="evenodd" clip-rule="evenodd" d="M17.64 10.0416C17.64 9.40341 17.5827 8.78977 17.4764 8.20068H9V11.682H13.8436C13.635 12.807 13.0009 13.7602 12.0477 14.3984V16.6566H14.9564C16.6582 15.0898 17.64 12.7825 17.64 10.0416Z" fill="white"/>
<path fill-rule="evenodd" clip-rule="evenodd" d="M8.99976 18.8369C11.4298 18.8369 13.467 18.031 14.9561 16.6564L12.0475 14.3982C11.2416 14.9382 10.2107 15.2573 8.99976 15.2573C6.65567 15.2573 4.67158 13.6741 3.96385 11.5469H0.957031V13.8787C2.43794 16.8201 5.48158 18.8369 8.99976 18.8369Z" fill="white"/>
<path fill-rule="evenodd" clip-rule="evenodd" d="M3.96409 11.547C3.78409 11.007 3.68182 10.4302 3.68182 9.83698C3.68182 9.2438 3.78409 8.66698 3.96409 8.12698V5.79517H0.957273C0.347727 7.01017 0 8.38471 0 9.83698C0 11.2893 0.347727 12.6638 0.957273 13.8788L3.96409 11.547Z" fill="white"/>
<path fill-rule="evenodd" clip-rule="evenodd" d="M8.99976 4.41646C10.3211 4.41646 11.5075 4.87055 12.4402 5.76237L15.0216 3.181C13.4629 1.72873 11.4257 0.836914 8.99976 0.836914C5.48158 0.836914 2.43794 2.85373 0.957031 5.7951L3.96385 8.12691C4.67158 5.99964 6.65567 4.41646 8.99976 4.41646Z" fill="white"/>
</svg>