<svg width="37" height="37" viewBox="0 0 37 37" fill="none" xmlns="http://www.w3.org/2000/svg">
<g id="instagram">
<g id="instagram_2">
<path d="M18.4568 10.6136C20.9947 10.6136 21.3408 10.6136 22.379 10.6136C23.3019 10.6136 23.7633 10.8443 24.1094 10.9596C24.5708 11.1903 24.9169 11.3057 25.263 11.6518C25.6091 11.9979 25.8398 12.3439 25.9551 12.8054C26.0705 13.1514 26.1858 13.6129 26.3012 14.5357C26.3012 15.574 26.3012 15.8047 26.3012 18.4579C26.3012 21.1112 26.3012 21.3419 26.3012 22.3801C26.3012 23.303 26.0705 23.7644 25.9551 24.1105C25.7244 24.5719 25.6091 24.918 25.263 25.2641C24.9169 25.6101 24.5708 25.8409 24.1094 25.9562C23.7633 26.0716 23.3019 26.1869 22.379 26.3023C21.3408 26.3023 21.1101 26.3023 18.4568 26.3023C15.8036 26.3023 15.5729 26.3023 14.5346 26.3023C13.6118 26.3023 13.1503 26.0716 12.8043 25.9562C12.3428 25.7255 11.9968 25.6101 11.6507 25.2641C11.3046 24.918 11.0739 24.5719 10.9585 24.1105C10.8432 23.7644 10.7278 23.303 10.6125 22.3801C10.6125 21.3419 10.6125 21.1112 10.6125 18.4579C10.6125 15.8047 10.6125 15.574 10.6125 14.5357C10.6125 13.6129 10.8432 13.1514 10.9585 12.8054C11.1892 12.3439 11.3046 11.9979 11.6507 11.6518C11.9968 11.3057 12.3428 11.075 12.8043 10.9596C13.1503 10.8443 13.6118 10.7289 14.5346 10.6136C15.5729 10.6136 15.9189 10.6136 18.4568 10.6136ZM18.4568 8.88318C15.8036 8.88318 15.5729 8.88318 14.5346 8.88318C13.4964 8.88318 12.8043 9.1139 12.2275 9.34461C11.6507 9.57533 11.0739 9.92141 10.4971 10.4982C9.92031 11.075 9.68959 11.5364 9.34351 12.2286C9.1128 12.8054 8.99744 13.4975 8.88208 14.5357C8.88208 15.574 8.88208 15.92 8.88208 18.4579C8.88208 21.1112 8.88208 21.3419 8.88208 22.3801C8.88208 23.4183 9.1128 24.1105 9.34351 24.6873C9.57423 25.2641 9.92031 25.8409 10.4971 26.4177C11.0739 26.9944 11.5353 27.2252 12.2275 27.5712C12.8043 27.802 13.4964 27.9173 14.5346 28.0327C15.5729 28.0327 15.9189 28.0327 18.4568 28.0327C20.9947 28.0327 21.3408 28.0327 22.379 28.0327C23.4172 28.0327 24.1094 27.802 24.6862 27.5712C25.263 27.3405 25.8398 26.9944 26.4166 26.4177C26.9934 25.8409 27.2241 25.3794 27.5701 24.6873C27.8009 24.1105 27.9162 23.4183 28.0316 22.3801C28.0316 21.3419 28.0316 20.9958 28.0316 18.4579C28.0316 15.92 28.0316 15.574 28.0316 14.5357C28.0316 13.4975 27.8009 12.8054 27.5701 12.2286C27.3394 11.6518 26.9934 11.075 26.4166 10.4982C25.8398 9.92141 25.3783 9.69069 24.6862 9.34461C24.1094 9.1139 23.4172 8.99854 22.379 8.88318C21.3408 8.88318 21.1101 8.88318 18.4568 8.88318Z" fill="#32893B"/>
<path d="M18.4568 13.4975C15.6882 13.4975 13.4964 15.6893 13.4964 18.4579C13.4964 21.2265 15.6882 23.4183 18.4568 23.4183C21.2254 23.4183 23.4172 21.2265 23.4172 18.4579C23.4172 15.6893 21.2254 13.4975 18.4568 13.4975ZM18.4568 21.688C16.7265 21.688 15.2268 20.3037 15.2268 18.4579C15.2268 16.7276 16.6111 15.2279 18.4568 15.2279C20.1872 15.2279 21.6869 16.6122 21.6869 18.4579C21.6869 20.1883 20.1872 21.688 18.4568 21.688Z" fill="#32893B"/>
<path d="M23.5326 14.5357C24.1697 14.5357 24.6862 14.0193 24.6862 13.3822C24.6862 12.7451 24.1697 12.2286 23.5326 12.2286C22.8955 12.2286 22.379 12.7451 22.379 13.3822C22.379 14.0193 22.8955 14.5357 23.5326 14.5357Z" fill="#32893B"/>
</g>
</g>
</svg>
