<svg width="37" height="37" viewBox="0 0 37 37" fill="none" xmlns="http://www.w3.org/2000/svg">
<g id="instagram">
<g id="instagram_2">
<path d="M18.4568 10.6736C20.9947 10.6736 21.3408 10.6736 22.379 10.6736C23.3019 10.6736 23.7633 10.9043 24.1094 11.0197C24.5708 11.2504 24.9169 11.3658 25.263 11.7118C25.6091 12.0579 25.8398 12.404 25.9551 12.8654C26.0705 13.2115 26.1858 13.6729 26.3012 14.5958C26.3012 15.634 26.3012 15.8647 26.3012 18.518C26.3012 21.1712 26.3012 21.4019 26.3012 22.4402C26.3012 23.363 26.0705 23.8245 25.9551 24.1705C25.7244 24.632 25.6091 24.9781 25.263 25.3241C24.9169 25.6702 24.5708 25.9009 24.1094 26.0163C23.7633 26.1316 23.3019 26.247 22.379 26.3624C21.3408 26.3624 21.1101 26.3624 18.4568 26.3624C15.8036 26.3624 15.5729 26.3624 14.5346 26.3624C13.6118 26.3624 13.1503 26.1316 12.8043 26.0163C12.3428 25.7856 11.9968 25.6702 11.6507 25.3241C11.3046 24.9781 11.0739 24.632 10.9585 24.1705C10.8432 23.8245 10.7278 23.363 10.6125 22.4402C10.6125 21.4019 10.6125 21.1712 10.6125 18.518C10.6125 15.8647 10.6125 15.634 10.6125 14.5958C10.6125 13.6729 10.8432 13.2115 10.9585 12.8654C11.1892 12.404 11.3046 12.0579 11.6507 11.7118C11.9968 11.3658 12.3428 11.135 12.8043 11.0197C13.1503 10.9043 13.6118 10.789 14.5346 10.6736C15.5729 10.6736 15.9189 10.6736 18.4568 10.6736ZM18.4568 8.94324C15.8036 8.94324 15.5729 8.94324 14.5346 8.94324C13.4964 8.94324 12.8043 9.17395 12.2275 9.40467C11.6507 9.63539 11.0739 9.98146 10.4971 10.5583C9.92031 11.135 9.68959 11.5965 9.34351 12.2886C9.1128 12.8654 8.99744 13.5576 8.88208 14.5958C8.88208 15.634 8.88208 15.9801 8.88208 18.518C8.88208 21.1712 8.88208 21.4019 8.88208 22.4402C8.88208 23.4784 9.1128 24.1705 9.34351 24.7473C9.57423 25.3241 9.92031 25.9009 10.4971 26.4777C11.0739 27.0545 11.5353 27.2852 12.2275 27.6313C12.8043 27.862 13.4964 27.9774 14.5346 28.0927C15.5729 28.0927 15.9189 28.0927 18.4568 28.0927C20.9947 28.0927 21.3408 28.0927 22.379 28.0927C23.4172 28.0927 24.1094 27.862 24.6862 27.6313C25.263 27.4006 25.8398 27.0545 26.4166 26.4777C26.9934 25.9009 27.2241 25.4395 27.5701 24.7473C27.8009 24.1705 27.9162 23.4784 28.0316 22.4402C28.0316 21.4019 28.0316 21.0559 28.0316 18.518C28.0316 15.9801 28.0316 15.634 28.0316 14.5958C28.0316 13.5576 27.8009 12.8654 27.5701 12.2886C27.3394 11.7118 26.9934 11.135 26.4166 10.5583C25.8398 9.98146 25.3783 9.75075 24.6862 9.40467C24.1094 9.17395 23.4172 9.0586 22.379 8.94324C21.3408 8.94324 21.1101 8.94324 18.4568 8.94324Z" fill="white"/>
<path d="M18.4568 13.5576C15.6882 13.5576 13.4964 15.7494 13.4964 18.518C13.4964 21.2866 15.6882 23.4784 18.4568 23.4784C21.2254 23.4784 23.4172 21.2866 23.4172 18.518C23.4172 15.7494 21.2254 13.5576 18.4568 13.5576ZM18.4568 21.748C16.7265 21.748 15.2268 20.3637 15.2268 18.518C15.2268 16.7876 16.6111 15.288 18.4568 15.288C20.1872 15.288 21.6869 16.6723 21.6869 18.518C21.6869 20.2484 20.1872 21.748 18.4568 21.748Z" fill="white"/>
<path d="M23.5326 14.5958C24.1697 14.5958 24.6862 14.0793 24.6862 13.4422C24.6862 12.8051 24.1697 12.2886 23.5326 12.2886C22.8955 12.2886 22.379 12.8051 22.379 13.4422C22.379 14.0793 22.8955 14.5958 23.5326 14.5958Z" fill="white"/>
</g>
</g>
</svg>
