<svg width="40" height="31" viewBox="0 0 40 31" fill="none" xmlns="http://www.w3.org/2000/svg">
<g clip-path="url(#clip0_3139_4117)">
<path d="M7.86516 30.1046V28.1023C7.86516 27.3364 7.39861 26.8348 6.59768 26.8348C6.19722 26.8348 5.76177 26.967 5.4624 27.4025C5.22912 27.037 4.89475 26.8348 4.3932 26.8348C4.05884 26.8348 3.72447 26.9359 3.46009 27.3014V26.9009H2.76025V30.1046H3.46009V28.3356C3.46009 27.7679 3.75946 27.4997 4.22602 27.4997C4.69258 27.4997 4.92586 27.799 4.92586 28.3356V30.1046H5.62569V28.3356C5.62569 27.7679 5.96006 27.4997 6.39162 27.4997C6.85818 27.4997 7.09146 27.799 7.09146 28.3356V30.1046H7.86516ZM18.2461 26.9009H17.1108V25.9328H16.4109V26.9009H15.7772V27.5346H16.4109V29.0043C16.4109 29.7391 16.7103 30.1707 17.5112 30.1707C17.8106 30.1707 18.145 30.0696 18.3782 29.9374L18.1761 29.3348C17.9739 29.467 17.7406 29.502 17.5734 29.502C17.2391 29.502 17.1069 29.2998 17.1069 28.9693V27.5346H18.2422V26.9009H18.2461ZM24.1869 26.8309C23.7864 26.8309 23.5181 27.0331 23.351 27.2975V26.897H22.6511V30.1007H23.351V28.2967C23.351 27.764 23.5842 27.4608 24.0197 27.4608C24.1519 27.4608 24.3191 27.4958 24.4551 27.5269L24.6573 26.8581C24.5174 26.8309 24.3191 26.8309 24.1869 26.8309ZM15.2095 27.1653C14.8752 26.932 14.4086 26.8309 13.9071 26.8309C13.1062 26.8309 12.5735 27.2314 12.5735 27.8651C12.5735 28.3978 12.974 28.701 13.6738 28.7982L14.0082 28.8332C14.3736 28.8993 14.5758 29.0004 14.5758 29.1676C14.5758 29.4009 14.3075 29.5681 13.841 29.5681C13.3744 29.5681 13.0051 29.4009 12.7718 29.2337L12.4374 29.7663C12.8029 30.0346 13.3044 30.1668 13.806 30.1668C14.7391 30.1668 15.2756 29.7313 15.2756 29.1326C15.2756 28.565 14.8402 28.2656 14.1753 28.1645L13.841 28.1295C13.5416 28.0945 13.3083 28.0284 13.3083 27.8301C13.3083 27.5968 13.5416 27.4647 13.911 27.4647C14.3114 27.4647 14.7119 27.6318 14.9141 27.7329L15.2095 27.1653ZM33.8291 26.8309C33.4286 26.8309 33.1603 27.0331 32.9931 27.2975V26.897H32.2933V30.1007H32.9931V28.2967C32.9931 27.764 33.2264 27.4608 33.6619 27.4608C33.7941 27.4608 33.9612 27.4958 34.0973 27.5269L34.2995 26.8659C34.1634 26.8309 33.9651 26.8309 33.8291 26.8309ZM24.8867 28.5027C24.8867 29.4709 25.5554 30.1707 26.5896 30.1707C27.0562 30.1707 27.3906 30.0696 27.7249 29.8052L27.3906 29.2376C27.1223 29.4397 26.8579 29.5369 26.5547 29.5369C25.987 29.5369 25.5865 29.1365 25.5865 28.5027C25.5865 27.9001 25.987 27.4997 26.5547 27.4685C26.854 27.4685 27.1223 27.5696 27.3906 27.7679L27.7249 27.2003C27.3906 26.932 27.0562 26.8348 26.5896 26.8348C25.5554 26.8309 24.8867 27.5346 24.8867 28.5027ZM31.3602 28.5027V26.9009H30.6604V27.3014C30.4271 27.002 30.0927 26.8348 29.6573 26.8348C28.7552 26.8348 28.0554 27.5346 28.0554 28.5027C28.0554 29.4709 28.7552 30.1707 29.6573 30.1707C30.1238 30.1707 30.4582 30.0035 30.6604 29.7041V30.1046H31.3602V28.5027ZM28.7902 28.5027C28.7902 27.9351 29.1557 27.4685 29.7583 27.4685C30.326 27.4685 30.7264 27.904 30.7264 28.5027C30.7264 29.0704 30.326 29.5369 29.7583 29.5369C29.1596 29.502 28.7902 29.0665 28.7902 28.5027ZM20.4155 26.8309C19.4824 26.8309 18.8137 27.4997 18.8137 28.4989C18.8137 29.502 19.4824 30.1668 20.4505 30.1668C20.9171 30.1668 21.3836 30.0346 21.753 29.7313L21.4186 29.2298C21.1504 29.432 20.816 29.5642 20.4855 29.5642C20.0501 29.5642 19.6185 29.362 19.5174 28.7982H21.8852C21.8852 28.6971 21.8852 28.6311 21.8852 28.53C21.9163 27.4997 21.3137 26.8309 20.4155 26.8309ZM20.4155 27.4336C20.851 27.4336 21.1504 27.7018 21.2165 28.1995H19.5485C19.6146 27.7679 19.914 27.4336 20.4155 27.4336ZM37.8026 28.5027V25.6334H37.1027V27.3014C36.8694 27.002 36.5351 26.8348 36.0996 26.8348C35.1976 26.8348 34.4978 27.5346 34.4978 28.5027C34.4978 29.4709 35.1976 30.1707 36.0996 30.1707C36.5662 30.1707 36.9005 30.0035 37.1027 29.7041V30.1046H37.8026V28.5027ZM35.2326 28.5027C35.2326 27.9351 35.5981 27.4685 36.2007 27.4685C36.7684 27.4685 37.1688 27.904 37.1688 28.5027C37.1688 29.0704 36.7684 29.5369 36.2007 29.5369C35.5981 29.502 35.2326 29.0665 35.2326 28.5027ZM11.8037 28.5027V26.9009H11.1038V27.3014C10.8706 27.002 10.5362 26.8348 10.1007 26.8348C9.19874 26.8348 8.4989 27.5346 8.4989 28.5027C8.4989 29.4709 9.19874 30.1707 10.1007 30.1707C10.5673 30.1707 10.9017 30.0035 11.1038 29.7041V30.1046H11.8037V28.5027ZM9.20263 28.5027C9.20263 27.9351 9.56809 27.4685 10.1707 27.4685C10.7384 27.4685 11.1388 27.904 11.1388 28.5027C11.1388 29.0704 10.7384 29.5369 10.1707 29.5369C9.56809 29.502 9.20263 29.0665 9.20263 28.5027Z" fill="white"/>
<path d="M25.4894 2.56995H14.9763V21.4577H25.4894V2.56995Z" fill="white"/>
<path d="M15.6763 12.0138C15.6763 8.17641 17.4803 4.77054 20.2485 2.56995C18.2112 0.968105 15.6413 0 12.8381 0C6.1974 0 0.824219 5.37318 0.824219 12.0138C0.824219 18.6545 6.1974 24.0277 12.8381 24.0277C15.6413 24.0277 18.2112 23.0596 20.2485 21.4577C17.4764 19.2882 15.6763 15.8513 15.6763 12.0138Z" fill="white"/>
<path d="M39.6726 12.0138C39.6726 18.6545 34.2994 24.0277 27.6588 24.0277C24.8555 24.0277 22.2856 23.0596 20.2483 21.4577C23.0515 19.2532 24.8205 15.8513 24.8205 12.0138C24.8205 8.17641 23.0165 4.77054 20.2483 2.56995C22.2817 0.968105 24.8517 0 27.6549 0C34.2994 0 39.6726 5.40817 39.6726 12.0138Z" fill="white"/>
</g>
<defs>
<clipPath id="clip0_3139_4117">
<rect width="38.8486" height="30.1707" fill="white" transform="translate(0.824219)"/>
</clipPath>
</defs>
</svg>
